# xmcd
#
# Track frame offsets:
#	150
#	12993
#	23772
#	37011
#	48113
#	58996
#	72043
#	85577
#	99362
#	111757
#	124645
#	135079
#	149090
#	162079
#	173447
#	185291
#
# Disc length: 2656 seconds
#
# Revision: 1
# Processed by: cddbd v1.5.1PL2 Copyright (c) Steve Scherf et al.
# Submitted via: audiograbber 1.83.01
#
DISCID=c50a5e10
DTITLE=Various Artist - Rhythm and Blues - CD 1
DYEAR=2006
DGENRE=Blues
TTITLE0=Ray Charles - I Got A Woman
TTITLE1=Chuck Berry - Thirty Days
TTITLE2=Etta James - The Wallflower
TTITLE3=Johnny Ace - Pledging My Love
TTITLE4=Fats Domino - Ain't That A Shame
TTITLE5=Perry Mayfield - Please Send Me Someone To Love
TTITLE6=Faye Adams - Hurts Me To My Heat
TTITLE7=Rosco Gordon - Booted
TTITLE8=The 3 Royales - Baby, Don't Do It
TTITLE9=Jay McShann with Priscilla Bowman - Hands Off
TTITLE10=Shirley and Lee - I'm Gone
TTITLE11=Jimmy Nelson - "T" 99 Blues
TTITLE12=The Penguins - Earth Angel
TTITLE13=Lloyd Price - Lawdy Miss Clawdy
TTITLE14=The Platters - Only You
TTITLE15=Jimmy Reed - You Don't Have To Go
EXTD=
EXTT0=
EXTT1=
EXTT2=
EXTT3=
EXTT4=
EXTT5=
EXTT6=
EXTT7=
EXTT8=
EXTT9=
EXTT10=
EXTT11=
EXTT12=
EXTT13=
EXTT14=
EXTT15=
PLAYORDER=
